<?xml version="1.0" encoding="UTF-8" standalone="no" ?>
<!DOCTYPE svg PUBLIC "-//W3C//DTD SVG 1.1//EN" "http://www.w3.org/Graphics/SVG/1.1/DTD/svg11.dtd">
<svg xmlns="http://www.w3.org/2000/svg" xmlns:xlink="http://www.w3.org/1999/xlink" version="1.1" width="40" height="30" viewBox="0 0 40 30" xml:space="preserve">
<desc>Created with Fabric.js 3.6.6</desc>
<defs>
</defs>
<g transform="matrix(0.38 0 0 0.38 19.82 14.72)" id="path2"  >
<path style="stroke: none; stroke-width: 1.25000226; stroke-dasharray: none; stroke-linecap: butt; stroke-dashoffset: 0; stroke-linejoin: miter; stroke-miterlimit: 4; fill: rgb(198,0,43); fill-rule: nonzero; opacity: 1;"  transform=" translate(-71.51, -220.86)" d="m 47.855469 182.44531 c -15.635029 0 -28.302735 12.667 -28.302735 28.30078 c 0 9.91915 6.281238 17.06999 12.84375 23.6875 l 25.660157 24.25977 c 1.344502 1.27113 3.55664 0.31714 3.55664 -1.5332 v -18.90039 c 0 -5.46839 4.427771 -9.90324 9.894531 -9.91211 c 5.466261 0.009 9.896485 4.44372 9.896485 9.91211 v 18.90039 c 0 1.85037 2.212138 2.80433 3.556641 1.5332 l 25.658202 -24.25977 c 6.56276 -6.61751 12.8457 -13.76873 12.8457 -23.6875 c 0 -15.63312 -12.6654 -28.29972 -28.300778 -28.30078 h -0.002 c -9.810724 0.0007 -18.576423 5.19793 -23.652343 12.78907 c -5.076385 -7.59127 -13.841779 -12.78907 -23.654297 -12.78907 z m -6.765625 8.63672 c 0.630001 0.021 1.236702 0.34592 1.595703 0.91992 c 0.576001 0.915 0.298861 2.12713 -0.619141 2.70313 c -4.395008 2.755 -7.835937 9.21221 -7.835937 14.69922 V 209.5 c 0 6.75901 3.841001 13.58977 11.416015 20.30078 c 0.813002 0.72 0.886924 1.95953 0.169922 2.76953 c -0.388 0.438 -0.928749 0.65821 -1.46875 0.65821 c -0.463001 0 -0.92678 -0.16024 -1.300781 -0.49024 C 34.596859 225.24727 30.310547 217.43001 30.310547 209.5 v -0.0957 c 0 -6.81402 4.159865 -14.56343 9.671875 -18.02344 c 0.344001 -0.215 0.730421 -0.31183 1.107422 -0.29883 z m 60.837886 0 c 0.37801 -0.013 0.76343 0.0838 1.10743 0.29883 c 5.51301 3.46001 9.67187 11.20942 9.67187 18.02344 V 209.5 c 0 7.93001 -4.28531 15.74727 -12.736327 23.23828 c -0.373001 0.33 -0.83778 0.49024 -1.300781 0.49024 c -0.539001 0 -1.080749 -0.22021 -1.46875 -0.65821 c -0.719001 -0.81 -0.644033 -2.04953 0.167969 -2.76953 c 7.575009 -6.71101 11.416019 -13.54177 11.416019 -20.30078 v -0.0957 c 0 -5.48701 -3.44193 -11.94617 -7.83594 -14.70118 c -0.918 -0.576 -1.19319 -1.78617 -0.61719 -2.70117 c 0.359 -0.574 0.9667 -0.89892 1.5957 -0.91992 z m -46.548824 5.01367 c 0.762002 -0.064 1.52139 0.32302 1.900391 1.04102 c 0.504001 0.959 0.137736 2.14344 -0.822266 2.64844 c -3.929007 2.067 -6.374765 6.10119 -6.384765 10.5332 c 0.011 4.82201 3.06646 9.76364 7.605468 12.30664 c 0.946002 0.527 1.281908 1.72297 0.753907 2.66797 c -0.359001 0.641 -1.024937 1.00391 -1.710938 1.00391 c -0.327 0 -0.655984 -0.08 -0.958984 -0.25 c -5.729011 -3.20801 -9.586328 -9.51026 -9.611328 -15.69727 v -0.0586 c 0.023 -5.88402 3.266459 -11.23456 8.480468 -13.97657 c 0.240001 -0.126 0.494047 -0.19675 0.748047 -0.21875 z m 32.259766 0 c 0.254 0.022 0.509046 0.0927 0.748047 0.21875 c 5.214009 2.74201 8.456468 8.09255 8.480469 13.97657 v 0.0586 c -0.025 6.18701 -3.882318 12.48926 -9.611329 15.69727 c -0.303 0.17 -0.631983 0.25 -0.958984 0.25 c -0.686001 0 -1.35289 -0.36291 -1.712891 -1.00391 c -0.528001 -0.945 -0.190142 -2.14097 0.75586 -2.66797 c 4.540008 -2.543 7.591515 -7.48463 7.603515 -12.30664 c -0.01 -4.43201 -2.452805 -8.4662 -6.382812 -10.5332 c -0.959002 -0.505 -1.32922 -1.68944 -0.824219 -2.64844 c 0.378001 -0.718 1.141342 -1.10502 1.902344 -1.04102 z m -16.13086 7.16602 c 4.699009 0.003 8.507813 3.81271 8.507813 8.51172 c 0 4.69901 -3.808804 8.50872 -8.507813 8.51172 c -4.698008 -0.003 -8.505859 -3.81271 -8.505859 -8.51172 c 0 -4.69901 3.807851 -8.50872 8.505859 -8.51172 z" stroke-linecap="round" />
</g>
</svg>