<?xml version="1.0" encoding="UTF-8" standalone="no" ?>
<!DOCTYPE svg PUBLIC "-//W3C//DTD SVG 1.1//EN" "http://www.w3.org/Graphics/SVG/1.1/DTD/svg11.dtd">
<svg xmlns="http://www.w3.org/2000/svg" xmlns:xlink="http://www.w3.org/1999/xlink" version="1.1" width="39" height="27" viewBox="0 0 39 27" xml:space="preserve">
<g transform="matrix(1 0 0 1 96.29 13.61)">
    <g style="">
        <g transform="matrix(1.33 0 0 -1.33 -76.37 -6.31)">
            <path style="stroke: none; stroke-width: 1; stroke-dasharray: none; stroke-linecap: butt; stroke-dashoffset: 0; stroke-linejoin: miter; stroke-miterlimit: 4; fill: rgb(255,255,255); fill-rule: nonzero; opacity: 1;"  transform=" translate(4.73, 0)" d="m 0 0 l -4.729 -4.73 L -9.459 0 l 4.73 4.728 Z" stroke-linecap="round" />
        </g>
		<g transform="matrix(1.33 0 0 -1.33 -76.37 6.31)">
            <path style="stroke: none; stroke-width: 1; stroke-dasharray: none; stroke-linecap: butt; stroke-dashoffset: 0; stroke-linejoin: miter; stroke-miterlimit: 4; fill: rgb(255,255,255); fill-rule: nonzero; opacity: 1;"  transform=" translate(4.73, 0)" d="m 0 0 l -4.729 -4.73 L -9.459 0 l 4.73 4.73 Z" stroke-linecap="round" />
        </g>
		<g transform="matrix(1.33 0 0 -1.33 -88.98 -6.31)">
            <path style="stroke: none; stroke-width: 1; stroke-dasharray: none; stroke-linecap: butt; stroke-dashoffset: 0; stroke-linejoin: miter; stroke-miterlimit: 4; fill: rgb(255,255,255); fill-rule: nonzero; opacity: 1;"  transform=" translate(4.73, 0)" d="m 0 0 l -4.73 -4.73 L -9.459 0 l 4.729 4.729 Z" stroke-linecap="round" />
        </g>
		<g transform="matrix(1.33 0 0 -1.33 -63.76 -6.31)">
            <path style="stroke: none; stroke-width: 1; stroke-dasharray: none; stroke-linecap: butt; stroke-dashoffset: 0; stroke-linejoin: miter; stroke-miterlimit: 4; fill: rgb(255,255,255); fill-rule: nonzero; opacity: 1;"  transform=" translate(4.73, 0)" d="m 0 0 l -4.729 -4.73 L -9.459 0 l 4.73 4.729 Z" stroke-linecap="round" />
        </g>
    </g>
</g>
</svg>